<svg xmlns="http://www.w3.org/2000/svg" viewBox="0 0 20 26.5"><defs><style>.cls-1{fill:#fff;}</style></defs><g id="レイヤー_2" data-name="レイヤー 2"><g id="type"><path class="cls-1" d="M10,0A10,10,0,0,0,5.9,19.1v6.4a.9.9,0,0,0,1,1h6a.9.9,0,0,0,1-1V19.2A10,10,0,0,0,10,0Zm1.4,22.5h-3a.9.9,0,0,1-1-1v-3a1,1,0,0,1,1-1h3a1.1,1.1,0,0,1,1,1v3A1,1,0,0,1,11.4,22.5Zm4-7.1a.5.5,0,0,1-.8,0l-.8-.8a.5.5,0,0,1,0-.8.5.5,0,0,1,.8,0l.4.4a7.6,7.6,0,0,0,1.5-3.7h-.6a.6.6,0,0,1-.6-.5.6.6,0,0,1,.6-.6h.6A7.3,7.3,0,0,0,15,5.8l-.4.4a.5.5,0,0,1-.8,0,.5.5,0,0,1,0-.8l.3-.4a6.9,6.9,0,0,0-3.6-1.5v.6a.6.6,0,0,1-.5.6.6.6,0,0,1-.6-.6V3.5A8.3,8.3,0,0,0,5.9,4.9L11,8.5a1.9,1.9,0,0,1,.8,1.5h0A1.8,1.8,0,0,1,10,11.7,2.1,2.1,0,0,1,8.5,11L4.9,5.9A8.3,8.3,0,0,0,3.5,9.4h.6a.6.6,0,0,1,.6.6.6.6,0,0,1-.6.5H3.5A7.6,7.6,0,0,0,5,14.2l.4-.4a.5.5,0,0,1,.8,0,.5.5,0,0,1,0,.8l-.8.8a.5.5,0,0,1-.8,0A7.8,7.8,0,0,1,2.3,10,7.8,7.8,0,0,1,10,2.3,7.8,7.8,0,0,1,17.7,10,7.8,7.8,0,0,1,15.4,15.4Z"/></g></g></svg>