<svg xmlns="http://www.w3.org/2000/svg" width="24" height="21.249" viewBox="0 0 24 21.249">
  <g id="组_876" data-name="组 876" transform="translate(-1221 -224.391)">
    <path id="路径_605" data-name="路径 605" d="M1228.637,234.146a4.877,4.877,0,1,1,4.877-4.878A4.884,4.884,0,0,1,1228.637,234.146Z" fill="#2db4e0"/>
    <path id="路径_606" data-name="路径 606" d="M1234.251,245.635l.026-5.914a1.279,1.279,0,0,1,1.031-1.236,4.92,4.92,0,0,1,.181-1.9,7.868,7.868,0,0,0-7-3.068,8.2,8.2,0,0,0-7.486,8.288v3.817Z" fill="#2db4e0"/>
  </g>
  <g id="组_877" data-name="组 877" transform="translate(-1221 -224.391)">
    <path id="路径_607" data-name="路径 607" d="M1240.656,234.4a3.325,3.325,0,0,0-3.321,3.322v2.044a.255.255,0,0,0,.255.255h1.022a.256.256,0,0,0,.256-.255v-2.044a1.788,1.788,0,1,1,3.577,0v2.044a.255.255,0,0,0,.255.255h1.022a.256.256,0,0,0,.256-.255v-2.044A3.326,3.326,0,0,0,1240.656,234.4Z" fill="#f5c828"/>
    <path id="路径_608" data-name="路径 608" d="M1237.59,238.485h6.132a1.278,1.278,0,0,1,1.278,1.278v4.6a1.278,1.278,0,0,1-1.278,1.278h-6.132a1.278,1.278,0,0,1-1.278-1.278v-4.6A1.278,1.278,0,0,1,1237.59,238.485Zm4.344,2.811a1.277,1.277,0,1,0-1.845,1.139l-.2,1.38a.256.256,0,0,0,.217.289.218.218,0,0,0,.036,0h1.022a.254.254,0,0,0,.258-.252.246.246,0,0,0,0-.039l-.2-1.38A1.282,1.282,0,0,0,1241.934,241.3Z" fill="#f5c828"/>
  </g>
</svg>
