<svg width="24" height="24" xmlns="http://www.w3.org/2000/svg">

 <g>
  <title>background</title>
  <rect fill="none" id="canvas_background" height="402" width="582" y="-1" x="-1"/>
 </g>
 <g>
  <title>Layer 1</title>
  <g id="组_250">
   <g id="组_249">
    <g id="组_248">
     <path fill="#ebc319" d="m19.545,14.908998l-0.909,0a0.453,0.453 0 0 0 -0.454,0.454l0,6.819l-16.364,0l0,-16.364l6.818,0a0.455,0.455 0 0 0 0.455,-0.455l0,-0.909a0.454,0.454 0 0 0 -0.455,-0.454l-6.818,0a1.818,1.818 0 0 0 -1.818,1.818l0,16.364a1.818,1.818 0 0 0 1.818,1.818l16.364,0a1.818,1.818 0 0 0 1.818,-1.818l0,-6.819a0.454,0.454 0 0 0 -0.455,-0.454z" id="路径_243"/>
     <path fill="#ebc319" d="m23.455,-0.002002l-9.819,0a0.545,0.545 0 0 0 -0.545,0.545l0,1.091a0.546,0.546 0 0 0 0.545,0.546l6.64,0l-12.48,12.479a0.545,0.545 0 0 0 0,0.771l0.771,0.772a0.546,0.546 0 0 0 0.772,0l12.479,-12.48l0,6.639a0.546,0.546 0 0 0 0.546,0.546l1.091,0a0.545,0.545 0 0 0 0.545,-0.546l0,-9.818a0.545,0.545 0 0 0 -0.545,-0.545z" id="路径_244"/>
    </g>
   </g>
  </g>
 </g>
</svg>