<svg width="24" height="20.69" xmlns="http://www.w3.org/2000/svg">

 <g>
  <title>background</title>
  <rect fill="none" id="canvas_background" height="402" width="582" y="-1" x="-1"/>
 </g>
 <g>
  <title>Layer 1</title>
  <path fill="#f5c828" d="m22.887,2.483001l-10,0a1.654,1.654 0 0 1 -1.378,-0.736l-0.67,-1.01a1.656,1.656 0 0 0 -1.378,-0.737l-8.349,0a1.112,1.112 0 0 0 -1.112,1.113l0,5.508l24,0l0,-3.025a1.112,1.112 0 0 0 -1.113,-1.113z" id="路径_2257"/>
  <path fill="#f5e146" d="m22.887,4.966001l-21.775,0a1.112,1.112 0 0 0 -1.112,1.112l0,13.5a1.112,1.112 0 0 0 1.112,1.112l21.775,0a1.112,1.112 0 0 0 1.113,-1.112l0,-13.5a1.112,1.112 0 0 0 -1.113,-1.112z" id="路径_2258"/>
 </g>
</svg>