<svg width="23.988" height="26" xmlns="http://www.w3.org/2000/svg">
 <g>
  <title>background</title>
  <rect x="-1" y="-1" width="9.738017" height="10.387045" id="canvas_background" fill="none"/>
 </g>

 <g>
  <title>Layer 1</title>
  <path id="路径_92" d="m12.931008,19.777011l1.874,0l0,-2.59l-1.874,0l0,-10.9l-1.874,0l0,10.9l-1.874,0l0,2.59l1.874,0l0,4.056l1.874,0l0,-4.056zm-9.183,-7.629l1.874,0l0,-3.307l-1.874,0l0,-4.785l-1.874,0l0,4.784l-1.874,0l0,3.308l1.874,0l0,13.685l1.874,0l0,-13.685zm20.24,1.1l-1.874,0l0,-7.31l-1.874,0l0,7.31l-1.874,0l0,3.056l1.874,0l0,13.754l1.874,0l0,-17.812l1.874,0l0,1.002z" fill="#ebc319"/>
 </g>
</svg>