<svg width="24" height="21.249" xmlns="http://www.w3.org/2000/svg">

 <g>
  <title>background</title>
  <rect fill="none" id="canvas_background" height="402" width="582" y="-1" x="-1"/>
 </g>
 <g>
  <title>Layer 1</title>
  <g id="组_232">
   <path fill="#fff" d="m7.637,9.755009a4.878,4.878 0 1 1 4.877,-4.878a4.884,4.884 0 0 1 -4.877,4.878z" id="路径_222"/>
   <path fill="#fff" d="m13.251,21.244009l0.026,-5.914a1.279,1.279 0 0 1 1.031,-1.236a4.922,4.922 0 0 1 0.181,-1.9a7.868,7.868 0 0 0 -7,-3.068a8.2,8.2 0 0 0 -7.486,8.288l0,3.817l13.248,0.013z" id="路径_223"/>
  </g>
  <path fill="#fff" d="m16.59,14.094009l6.132,0a1.278,1.278 0 0 1 1.278,1.278l0,4.6a1.278,1.278 0 0 1 -1.278,1.278l-6.132,0a1.278,1.278 0 0 1 -1.278,-1.278l0,-4.6a1.278,1.278 0 0 1 1.278,-1.278zm4.344,2.811a1.278,1.278 0 1 0 -1.845,1.139l-0.2,1.38a0.256,0.256 0 0 0 0.217,0.289a0.224,0.224 0 0 0 0.036,0l1.022,0a0.254,0.254 0 0 0 0.258,-0.252a0.262,0.262 0 0 0 0,-0.039l-0.2,-1.38a1.282,1.282 0 0 0 0.712,-1.133l0,-0.004z" id="路径_225"/>
 </g>
</svg>