<svg xmlns="http://www.w3.org/2000/svg" viewBox="0 0 32 18"><defs><style>.cls-1{fill:#fff;}.cls-2,.cls-3{fill:#d61918;}.cls-3{font-size:10px;font-family:YuGo-Medium-83pv-RKSJ-H, YuGothic;}</style></defs><g id="レイヤー_2" data-name="レイヤー 2"><g id="type"><rect class="cls-1" x="0.5" y="0.5" width="31" height="17" rx="1.5"/><path class="cls-2" d="M30,1a.9.9,0,0,1,1,1V16a.9.9,0,0,1-1,1H2a.9.9,0,0,1-1-1V2A.9.9,0,0,1,2,1H30m0-1H2A2,2,0,0,0,0,2V16a2,2,0,0,0,2,2H30a2,2,0,0,0,2-2V2a2,2,0,0,0-2-2Z"/><text class="cls-3" transform="translate(5.9 12.6)">必須</text></g></g></svg>