<svg xmlns="http://www.w3.org/2000/svg" viewBox="0 0 22 22"><defs><style>.cls-1{fill:#fff;}.cls-2{fill:#32465a;}</style></defs><g id="图层_2" data-name="图层 2"><g id="type"><rect class="cls-1" x="0.5" y="0.5" width="21" height="21" rx="1.5"/><path class="cls-2" d="M20,1a1,1,0,0,1,1,1V20a1,1,0,0,1-1,1H2a1,1,0,0,1-1-1V2A1,1,0,0,1,2,1H20m0-1H2A2,2,0,0,0,0,2V20a2,2,0,0,0,2,2H20a2,2,0,0,0,2-2V2a2,2,0,0,0-2-2Z"/><path class="cls-2" d="M17.58,5.64a5.22,5.22,0,0,1,0,7.37l-5.15,5.15a.69.69,0,1,1-1-1L16.6,12a3.81,3.81,0,1,0-5.4-5.39L5.8,12a2.43,2.43,0,0,0,3.44,3.44l4.91-4.91a1.05,1.05,0,0,0,0-1.47,1,1,0,0,0-1.47,0L8,13.74a.69.69,0,1,1-1-1L11.69,8.1a2.43,2.43,0,0,1,3.44,3.43l-4.91,4.91A3.82,3.82,0,0,1,4.82,11l5.4-5.4A5.21,5.21,0,0,1,17.58,5.64Z"/></g></g></svg>