<svg xmlns="http://www.w3.org/2000/svg" viewBox="0 0 20 20"><defs><style>.cls-1{fill:#fff;}.cls-2{fill:#4146cd;}.cls-3{fill:none;stroke:#4146cd;stroke-width:1.5px;}</style></defs><g id="图层_2" data-name="图层 2"><g id="type"><rect class="cls-1" x="0.5" y="0.5" width="19" height="19" rx="1.49"/><path class="cls-2" d="M18,1a1,1,0,0,1,1,1V18a1,1,0,0,1-1,1H2a1,1,0,0,1-1-1V2A1,1,0,0,1,2,1H18m0-1H2A2,2,0,0,0,0,2V18a2,2,0,0,0,2,2H18a2,2,0,0,0,2-2V2a2,2,0,0,0-2-2Z"/><line class="cls-3" x1="5" y1="10" x2="15" y2="10"/><line class="cls-3" x1="10" y1="15" x2="10" y2="5"/></g></g></svg>