<svg xmlns="http://www.w3.org/2000/svg" viewBox="0 0 22.03 22.03"><defs><style>.cls-1{fill:#fff;}.cls-2{fill:#32465a;}</style></defs><g id="图层_2" data-name="图层 2"><g id="type"><path class="cls-1" d="M2,21.53A1.5,1.5,0,0,1,.53,20L.5,2A1.5,1.5,0,0,1,2,.53l18,0A1.5,1.5,0,0,1,21.5,2l0,18A1.5,1.5,0,0,1,20,21.5Z"/><path class="cls-2" d="M20,1a1,1,0,0,1,1,1l0,18a1,1,0,0,1-.3.7,1,1,0,0,1-.7.3L2,21a1,1,0,0,1-1-1L1,2a1,1,0,0,1,.29-.71A1,1,0,0,1,2,1L20,1h0m0-1h0L2,0A2,2,0,0,0,0,2L0,20a2,2,0,0,0,2,2H2l18,0a2,2,0,0,0,2-2L22,2a2,2,0,0,0-2-2Z"/><path class="cls-2" d="M18,3,4,3A1,1,0,0,0,3,4L3,18a1,1,0,0,0,1,1l14,0a1,1,0,0,0,1-1L19,4A1,1,0,0,0,18,3Z"/><path class="cls-1" d="M12,11H5V9h7Z"/><path class="cls-1" d="M16,8H5V6H16Z"/><path class="cls-1" d="M11,16H5V14h6Z"/><path class="cls-1" d="M15,16H12V14h3Z"/></g></g></svg>