<svg xmlns="http://www.w3.org/2000/svg" viewBox="0 0 24 24.44"><defs><style>.cls-1,.cls-2{fill:#304558;}.cls-2{stroke:#304558;}.cls-2,.cls-4{stroke-width:0.89px;}.cls-3{fill:#fff;}.cls-4{fill:none;stroke:#717070;}</style></defs><g id="图层_2" data-name="图层 2"><g id="レイヤー_1" data-name="レイヤー 1"><g id="グループ_1275" data-name="グループ 1275"><path id="長方形_1692" data-name="長方形 1692" class="cls-1" d="M0,11.52H24V22.6a1.78,1.78,0,0,1-1.71,1.84H1.71A1.78,1.78,0,0,1,0,22.6V11.52Z"/><path id="長方形_1693" data-name="長方形 1693" class="cls-1" d="M1.71,6.05H22.29A1.79,1.79,0,0,1,24,7.9v2.77H0V7.9A1.79,1.79,0,0,1,1.71,6.05Z"/><path id="パス_473" data-name="パス 473" class="cls-2" d="M6,4.76h.81S6,2.85,6.79,2s9.75-.94,10.55,0,0,2.77,0,2.77h.81s.88-2.8,0-3.69S6.66.3,6,1.07,6,4.76,6,4.76Z"/><path id="パス_474" data-name="パス 474" class="cls-3" d="M5.14,15.68l1.72,1.84L5.14,19.4H2.57l.86,1.35a5.53,5.53,0,0,0,2.91,0,4.17,4.17,0,0,0,1.89-1.89h7.54a4.71,4.71,0,0,0,1.89,1.89,4.82,4.82,0,0,0,2.91,0l.86-1.35H18.86l-1.72-1.88,1.72-1.84h2.57l-.86-1.39a4.82,4.82,0,0,0-2.91,0,4.91,4.91,0,0,0-1.89,2.4H8.23a4.91,4.91,0,0,0-1.89-2.4,4.82,4.82,0,0,0-2.91,0l-.86,1.39Z"/><g id="長方形_1694" data-name="長方形 1694"><rect class="cls-3" x="10.29" y="7.83" width="4.29" height="5.54"/><rect class="cls-4" x="10.71" y="8.29" width="3.43" height="4.62"/></g></g></g></g></svg>