<svg xmlns="http://www.w3.org/2000/svg" viewBox="0 0 19.17 24"><defs><style>.cls-1{fill:#32465a;}</style></defs><g id="图层_2" data-name="图层 2"><g id="レイヤー_1" data-name="レイヤー 1"><path class="cls-1" d="M0,16.55,10.73,24c1.42-.12,3.95-5.36,3.95-5.36L3.84,12.38S1.73,15.83,0,16.55Z"/><path class="cls-1" d="M10.34,10.57l.37-.86L15.32.6A1.2,1.2,0,0,1,17,.16l1.61.94A1.19,1.19,0,0,1,19,2.73l-5.58,8.55-.51.71c1.15,1.7,3.42,3.77,3.24,4.08l-1.07,1.85L4.26,11.66,5.33,9.81C5.5,9.51,8.3,10.39,10.34,10.57Zm5.8-8.23a.63.63,0,0,0,.23.86A.62.62,0,0,0,17.22,3l.32-.55a.63.63,0,0,0-.23-.86.62.62,0,0,0-.85.23Z"/></g></g></svg>