<svg xmlns="http://www.w3.org/2000/svg" viewBox="0 0 20 19.41"><defs><style>.cls-1{fill:#32465a;}</style></defs><g id="图层_2" data-name="图层 2"><g id="レイヤー_1" data-name="レイヤー 1"><path class="cls-1" d="M19.52,2.19a1.49,1.49,0,0,0-1.07-.43H16.27V4.48a1.53,1.53,0,0,1-.48,1.12,1.67,1.67,0,0,1-1.12.48h-.75A1.53,1.53,0,0,1,12.8,5.6a1.65,1.65,0,0,1-.48-1.12V1.76H7.52V4.48A1.53,1.53,0,0,1,7,5.6a1.65,1.65,0,0,1-1.12.48H5.17A1.55,1.55,0,0,1,4.05,5.6a1.69,1.69,0,0,1-.48-1.12V1.76H1.49A1.47,1.47,0,0,0,0,3.25V17.92A1.49,1.49,0,0,0,.43,19a1.5,1.5,0,0,0,1.06.42h15.1V18.08H1.49a.17.17,0,0,1-.1,0,.21.21,0,0,1-.06-.11V8.05H18.67v8.16L20,16V3.25A1.33,1.33,0,0,0,19.52,2.19Z"/><path class="cls-1" d="M6.77,4.48V.75A.92.92,0,0,0,6.56.21.68.68,0,0,0,6,0H5.28a1,1,0,0,0-.53.21.7.7,0,0,0-.22.54V4.48A.93.93,0,0,0,4.75,5a.69.69,0,0,0,.53.22H6A.93.93,0,0,0,6.56,5,1.08,1.08,0,0,0,6.77,4.48Z"/><path class="cls-1" d="M15.47,4.48V.75a.93.93,0,0,0-.22-.54A.68.68,0,0,0,14.72,0H14a1,1,0,0,0-.53.21.69.69,0,0,0-.21.54V4.48a.92.92,0,0,0,.21.53.69.69,0,0,0,.53.22h.75A.93.93,0,0,0,15.25,5,1.1,1.1,0,0,0,15.47,4.48Z"/><path class="cls-1" d="M16.75,19.41h-.7V15.57H20v.64"/><rect class="cls-1" x="2.53" y="10.39" width="2.51" height="2.51"/><rect class="cls-1" x="2.53" y="13.53" width="2.51" height="2.51"/><rect class="cls-1" x="6.92" y="10.39" width="2.51" height="2.51"/><rect class="cls-1" x="6.92" y="13.53" width="2.51" height="2.51"/><rect class="cls-1" x="11.32" y="10.39" width="2.51" height="2.51"/><rect class="cls-1" x="11.32" y="13.53" width="2.51" height="2.51"/><rect class="cls-1" x="15.71" y="10.39" width="2.51" height="2.51"/><rect class="cls-1" x="15.71" y="13.53" width="2.51" height="2.51"/></g></g></svg>