<svg id="レイヤー_1" data-name="レイヤー 1" xmlns="http://www.w3.org/2000/svg" width="28" height="28" viewBox="0 0 28 28">
  <g>
    <path d="M25.59,17.11a12,12,0,0,0,0-6.22L14,14Z" style="fill: #be38f3"/>
    <path d="M17.11,2.41a12,12,0,0,0-6.22,0L14,14Z" style="fill: #00c7fc"/>
    <path d="M10.89,2.41a12.07,12.07,0,0,0-5.38,3.1L14,14Z" style="fill: #97d35f"/>
    <path d="M22.49,5.51a12.07,12.07,0,0,0-5.38-3.1L14,14Z" style="fill: #3c87fe"/>
    <path d="M5.51,5.51a12.07,12.07,0,0,0-3.1,5.38L14,14Z" style="fill: #e3ef65"/>
    <path d="M25.59,10.89a12.07,12.07,0,0,0-3.1-5.38L14,14Z" style="fill: #854ffd"/>
    <path d="M17.11,25.59a12.07,12.07,0,0,0,5.38-3.1L14,14Z" style="fill: #ff6250"/>
    <path d="M10.89,25.59a12,12,0,0,0,6.22,0L14,14Z" style="fill: #ff8649"/>
    <path d="M2.41,10.89a12,12,0,0,0,0,6.22L14,14Z" style="fill: #fef76b"/>
    <path d="M14,14l8.49,8.49a12.07,12.07,0,0,0,3.1-5.38Z" style="fill: #e53b7a"/>
    <path d="M2.41,17.11a12.07,12.07,0,0,0,3.1,5.38L14,14Z" style="fill: #fdca3d"/>
    <path d="M5.51,22.49a12.07,12.07,0,0,0,5.38,3.1L14,14Z" style="fill: #feb43f"/>
  </g>
</svg>
