<svg xmlns="http://www.w3.org/2000/svg" viewBox="0 0 16.91 13.27"><defs><style>.cls-1{fill:#32465a;}.cls-2{fill:none;stroke:#32465a;stroke-miterlimit:10;stroke-width:0.91px;}</style></defs><g id="图层_2" data-name="图层 2"><g id="レイヤー_1" data-name="レイヤー 1"><path class="cls-1" d="M8.45,11.36a.33.33,0,0,1-.17,0l-7.67-4a.25.25,0,0,1-.16-.22.27.27,0,0,1,.16-.23l.72-.37a.37.37,0,0,1,.18,0,.39.39,0,0,1,.18,0L8.45,10l6.77-3.51a.39.39,0,0,1,.18,0,.37.37,0,0,1,.18,0l.72.37a.26.26,0,0,1,.15.23.24.24,0,0,1-.15.22l-7.67,4A.34.34,0,0,1,8.45,11.36Z"/><path class="cls-2" d="M8.45,9a.33.33,0,0,1-.17,0L.61,5a.25.25,0,0,1-.16-.22.27.27,0,0,1,.16-.23L8.28.5a.34.34,0,0,1,.17,0,.35.35,0,0,1,.18,0l7.67,4a.26.26,0,0,1,.15.23A.24.24,0,0,1,16.3,5L8.63,9A.34.34,0,0,1,8.45,9Z"/><path class="cls-1" d="M8.45,13.27a.33.33,0,0,1-.17,0l-7.67-4A.25.25,0,0,1,.45,9,.27.27,0,0,1,.61,8.8l.72-.37a.37.37,0,0,1,.18,0,.39.39,0,0,1,.18,0l6.76,3.51,6.77-3.51a.39.39,0,0,1,.18,0,.37.37,0,0,1,.18,0l.72.37a.26.26,0,0,1,.15.23.24.24,0,0,1-.15.22l-7.67,4A.34.34,0,0,1,8.45,13.27Z"/></g></g></svg>