<svg xmlns="http://www.w3.org/2000/svg" viewBox="0 0 16 16.22"><defs><style>.cls-1{fill:#999;}.cls-2{fill:#32465a;}</style></defs><g id="图层_2" data-name="图层 2"><g id="レイヤー_1" data-name="レイヤー 1"><path class="cls-1" d="M4.44,4.87a.66.66,0,0,1-.93,0,.67.67,0,0,1,0-.93l4-3.73A.73.73,0,0,1,8,0a.67.67,0,0,1,.44.18l4,3.73a.64.64,0,0,1,0,.93.64.64,0,0,1-.93,0L8.67,2.18v9a.67.67,0,0,1-1.34,0v-9Z"/><path class="cls-2" d="M14.22,12.29v2.15H1.78V12.29H0v3.27a.66.66,0,0,0,.67.66H15.33a.66.66,0,0,0,.67-.66V12.29Z"/></g></g></svg>