<svg xmlns="http://www.w3.org/2000/svg" viewBox="0 0 24 24"><defs><style>.cls-1{fill:#414141;}</style></defs><g id="图层_2" data-name="图层 2"><g id="レイヤー_1" data-name="レイヤー 1"><path class="cls-1" d="M0,4V8H8V0H0ZM6.86,4V6.86H1.14V1.14H6.86Z"/><path class="cls-1" d="M2.29,4V5.71H5.71V2.29H2.29Z"/><path class="cls-1" d="M10.29.57v.57H9.14V2.29h1.15V3.43H9.14V4.57h1.15V3.43h1.14V2.29H10.29V1.14h1.14V0H10.29Z"/><path class="cls-1" d="M13.71.57v.57H12.57V2.29h1.14V1.14h1.15V0H13.71Z"/><path class="cls-1" d="M16,4V8h8V0H16Zm6.86,0V6.86H17.14V1.14h5.72Z"/><path class="cls-1" d="M18.29,4V5.71h3.42V2.29H18.29Z"/><path class="cls-1" d="M12.57,4v.57H11.43V5.71H9.14V8h1.15V6.86h1.14V9.14H6.86v1.15H8v1.14H6.86v1.14H5.71v1.14H6.86v1.15H9.14v2.28h1.15V16h1.14v2.29H9.14V24h1.15V19.43h1.14V18.29h2.28v2.28H11.43V24h2.28V22.86H12.57V21.71h1.14V20.57h1.15v1.14H16V20.57H14.86V18.29h2.28v2.28h1.15v1.14H17.14v1.15h1.15V24h1.14V20.57H18.29V18.29H17.14V17.14h1.15V16H17.14V14.86H16V13.71H14.86v1.15H13.71V13.71H12.57V12.57h1.14V11.43h1.15v1.14H16V11.43H14.86V10.29H16V9.14H14.86V4.57H13.71V3.43H12.57Zm1.14,2.86V8H12.57V5.71h1.14Zm0,3.43v1.14H12.57v1.14H9.14V10.29h1.15v1.14h2.28V10.29H11.43V9.14h2.28ZM8,13.14v.57H6.86V12.57H8Zm3.43,1.15v.57h1.14V16h1.14v1.14H12.57V16H11.43V14.86H9.14V13.71h2.29ZM16,16.57v.57H14.86V16H16Z"/><path class="cls-1" d="M0,12v2.86H1.14V10.29H3.43v1.14H4.57V10.29H5.71V9.14H0Z"/><path class="cls-1" d="M17.14,10.29v1.14h1.15v1.14H17.14v1.14h1.15v1.15h1.14v4.57h3.43V18.29H21.71V17.14h1.15V16H21.71V14.86H19.43V13.71H24V12.57H22.86V11.43H24V10.29H22.86V9.14H21.71v1.15h1.15v1.14H20.57v1.14H19.43V11.43H18.29V9.14H17.14Z"/><path class="cls-1" d="M19.43,9.71v.58h1.14V9.14H19.43Z"/><path class="cls-1" d="M3.43,14.29v.57H4.57V13.71H3.43Z"/><path class="cls-1" d="M0,20v4H8V16H0Zm6.86,0v2.86H1.14V17.14H6.86Z"/><path class="cls-1" d="M2.29,20v1.71H5.71V18.29H2.29Z"/><path class="cls-1" d="M20.57,22.29V24h2.29V22.86H21.71V20.57H20.57Z"/><path class="cls-1" d="M14.86,23.43V24H16V22.86H14.86Z"/></g></g></svg>