<svg xmlns="http://www.w3.org/2000/svg" viewBox="0 0 16 12.97"><defs><style>.cls-1{fill:#32465a;}</style></defs><g id="图层_2" data-name="图层 2"><g id="レイヤー_1" data-name="レイヤー 1"><g id="グループ_1103" data-name="グループ 1103"><path id="パス_389" data-name="パス 389" class="cls-1" d="M4.39,6.49H3.51a4.42,4.42,0,0,1,6.9-3.73,1,1,0,0,0,1.29-.08h0a1,1,0,0,0,0-1.42l-.16-.13A6.4,6.4,0,0,0,7.94,0,6.48,6.48,0,0,0,1.49,6.49H.61c-.55,0-.76.37-.5.81L2,9.18c.37.37.6.38,1,0L4.88,7.3C5.15,6.86,4.93,6.49,4.39,6.49Zm11.49-.78L14,3.84c-.38-.38-.62-.36-1,0L11.12,5.71c-.28.45,0,.81.49.81h.87a4.41,4.41,0,0,1-6.89,3.69,1,1,0,0,0-1.29.08h0a1,1,0,0,0,0,1.42l.16.13A6.37,6.37,0,0,0,8.05,13,6.47,6.47,0,0,0,14.5,6.52h.89C15.93,6.52,16.16,6.16,15.88,5.71Z"/></g></g></g></svg>