<svg xmlns="http://www.w3.org/2000/svg" viewBox="0 0 24 24"><defs><style>.cls-1{fill:#999;}.cls-2{fill:#32465a;}.cls-3{fill:#fff;}</style></defs><g id="type"><path class="cls-1" d="M1.76,11.7c0-.07,0-.14,0-.2A7.57,7.57,0,0,1,7,4.61V3C2.92,4.24,0,7.57,0,11.5a7.86,7.86,0,0,0,.35,2.27Z"/><path class="cls-1" d="M7,19v0H7Z"/><path class="cls-1" d="M17,3V4.63a6.79,6.79,0,0,1,5,6.87c0,4.14-4.48,7.5-10,7.5a13.07,13.07,0,0,1-2-.15v1.52a16.39,16.39,0,0,0,2,.13c6.63,0,12-4,12-9C24,7.58,21.66,4.26,17,3Z"/><circle class="cls-1" cx="12.04" cy="3.61" r="3.5"/><path class="cls-1" d="M13.12,6.27H10.93A4.1,4.1,0,0,0,7,10.52v.69c0,.32.12.68.47.68h9.07c.35,0,.46-.36.46-.68v-.64A4.1,4.1,0,0,0,13.12,6.27Z"/><circle class="cls-1" cx="5" cy="15.5" r="3.5"/><path class="cls-1" d="M6.12,18.19H3.93A4.1,4.1,0,0,0,0,22.44v.69c0,.32.12.68.47.68H9.54c.35,0,.46-.36.46-.68v-.64A4.1,4.1,0,0,0,6.12,18.19Z"/><circle class="cls-2" cx="18" cy="18" r="6"/><rect class="cls-3" x="14.4" y="16.8" width="7.2" height="2.4"/><rect class="cls-3" x="16.8" y="14.4" width="2.4" height="7.2"/></g></svg>