<svg xmlns="http://www.w3.org/2000/svg" viewBox="0 0 24 24" width="24" height="24"><defs><style>.cls-1{fill:#999;}</style></defs><g id="type"><path class="cls-1" d="M1.76,11.7c0-.07,0-.14,0-.2A7.57,7.57,0,0,1,7,4.61V3C2.92,4.24,0,7.57,0,11.5a7.86,7.86,0,0,0,.35,2.27Z"/><path class="cls-1" d="M22.24,11.7c0-.07,0-.14,0-.2A7.57,7.57,0,0,0,17,4.61V3c4.08,1.24,7,4.57,7,8.5a7.86,7.86,0,0,1-.35,2.27Z"/><path class="cls-1" d="M7,19v0H7Z"/><path class="cls-1" d="M14,18.85a13.41,13.41,0,0,1-4,0v1.52a16.39,16.39,0,0,0,2,.13,16.39,16.39,0,0,0,2-.13Z"/><circle class="cls-1" cx="12.04" cy="3.61" r="3.5"/><path class="cls-1" d="M13.12,6.27H10.93A4.1,4.1,0,0,0,7,10.52v.69c0,.32.12.68.47.68h9.07c.35,0,.46-.36.46-.68v-.64A4.1,4.1,0,0,0,13.12,6.27Z"/><circle class="cls-1" cx="5" cy="15.5" r="3.5"/><path class="cls-1" d="M6.12,18.19H3.93A4.1,4.1,0,0,0,0,22.44v.69c0,.32.12.68.47.68H9.54c.35,0,.46-.36.46-.68v-.64A4.1,4.1,0,0,0,6.12,18.19Z"/><circle class="cls-1" cx="19" cy="15.5" r="3.5"/><path class="cls-1" d="M20.12,18.19h-2.2A4.1,4.1,0,0,0,14,22.44v.69c0,.32.12.68.46.68h9.08c.34,0,.46-.36.46-.68v-.64A4.11,4.11,0,0,0,20.12,18.19Z"/></g></svg>
