<svg xmlns="http://www.w3.org/2000/svg" viewBox="0 0 20 20" width="20" height="20"><defs><style>.cls-1{fill:#fff;}.cls-2{fill:#32465a;}</style></defs><g id="图层_2" data-name="图层 2"><g id="type"><rect class="cls-1" x="0.5" y="0.5" width="19" height="19" rx="1.5"/><path class="cls-2" d="M18,1a1,1,0,0,1,1,1V18a1,1,0,0,1-1,1H2a1,1,0,0,1-1-1V2A1,1,0,0,1,2,1H18m0-1H2A2,2,0,0,0,0,2V18a2,2,0,0,0,2,2H18a2,2,0,0,0,2-2V2a2,2,0,0,0-2-2Z"/><path class="cls-2" d="M16.67,8.41l-1.08-.24a5.37,5.37,0,0,0-.34-.83l.59-.93a.41.41,0,0,0-.05-.52L14.11,4.21a.41.41,0,0,0-.52,0l-.93.59a5.37,5.37,0,0,0-.83-.34l-.24-1.08a.42.42,0,0,0-.4-.33H8.81a.42.42,0,0,0-.4.33L8.17,4.41a5.37,5.37,0,0,0-.83.34l-.93-.59a.41.41,0,0,0-.52,0L4.21,5.89a.41.41,0,0,0,0,.52l.59.93a5.37,5.37,0,0,0-.34.83l-1.08.24a.42.42,0,0,0-.33.4v2.38a.42.42,0,0,0,.33.4l1.08.24a5.37,5.37,0,0,0,.34.83l-.59.93a.41.41,0,0,0,0,.52l1.68,1.68a.41.41,0,0,0,.52.05l.93-.59a5.37,5.37,0,0,0,.83.34l.24,1.08a.42.42,0,0,0,.4.33h2.38a.42.42,0,0,0,.4-.33l.24-1.08a5.37,5.37,0,0,0,.83-.34l.93.59a.41.41,0,0,0,.52-.05l1.68-1.68a.41.41,0,0,0,.05-.52l-.59-.93a5.37,5.37,0,0,0,.34-.83l1.08-.24a.42.42,0,0,0,.33-.4V8.81A.42.42,0,0,0,16.67,8.41ZM12.51,10A2.51,2.51,0,1,1,10,7.49,2.52,2.52,0,0,1,12.51,10Z"/></g></g></svg>
