<svg xmlns="http://www.w3.org/2000/svg" viewBox="0 0 40 46.3" width="40" height="46.3"><defs><style>.cls-1{font-size:9px;fill:#333;font-family:YuGo-Medium, YuGo Medium-83pv-RKSJ-H;font-weight:500;}.cls-2{fill:#fff;}.cls-3{fill:#32465a;}.cls-4{fill:#999;}</style></defs><g id="图层_2" data-name="图层 2"><g id="graphic"><text class="cls-1" transform="translate(2 43.25)">権限変更</text><rect class="cls-2" x="0.5" y="0.5" width="39" height="31" rx="1.5"/><path class="cls-3" d="M38,1a1,1,0,0,1,1,1V30a1,1,0,0,1-1,1H2a1,1,0,0,1-1-1V2A1,1,0,0,1,2,1H38m0-1H2A2,2,0,0,0,0,2V30a2,2,0,0,0,2,2H38a2,2,0,0,0,2-2V2a2,2,0,0,0-2-2Z"/><path class="cls-4" d="M19.6,6a5.91,5.91,0,0,0-5.9,5.91v3.64a.45.45,0,0,0,.45.45H16a.45.45,0,0,0,.45-.45V11.91a3.19,3.19,0,0,1,6.37,0v3.64a.45.45,0,0,0,.45.45h1.82a.45.45,0,0,0,.45-.45V11.91A5.91,5.91,0,0,0,19.6,6Z"/><path class="cls-4" d="M14.15,13.27H25.06a2.28,2.28,0,0,1,2.27,2.28v8.18A2.27,2.27,0,0,1,25.06,26H14.15a2.27,2.27,0,0,1-2.27-2.27V15.55A2.27,2.27,0,0,1,14.15,13.27Zm7.73,5a2.28,2.28,0,1,0-3.28,2l-.35,2.45a.45.45,0,0,0,.38.52h1.88a.45.45,0,0,0,.46-.45v-.07l-.35-2.45A2.3,2.3,0,0,0,21.88,18.27Z"/><circle class="cls-3" cx="28.85" cy="22.76" r="5"/><path class="cls-2" d="M28.88,25.63,26,22.72l3.4-3.4a.68.68,0,0,1,1,0l1.94,1.94a.68.68,0,0,1,0,1Z"/><polygon class="cls-2" points="25.48 23.2 28.39 26.12 25.48 26.12 25.48 23.2"/><rect class="cls-3" x="26.82" y="21.4" width="4.12" height="0.69" transform="translate(-6.92 26.79) rotate(-45)"/><rect class="cls-3" x="27.79" y="22.37" width="4.12" height="0.69" transform="translate(-7.32 27.76) rotate(-45)"/></g></g></svg>