<svg xmlns="http://www.w3.org/2000/svg" viewBox="0 0 18.36 20.15"><defs><style>.cls-1{fill:#999;}.cls-2{fill:#32465a;}.cls-3{fill:#fff;}</style></defs><g id="レイヤー_2" data-name="レイヤー 2"><g id="type"><path class="cls-1" d="M6.93,8.26a4.13,4.13,0,1,1,4.13-4.13A4.14,4.14,0,0,1,6.93,8.26Z"/><path class="cls-1" d="M12.63,18H1.22A1.22,1.22,0,0,1,0,16.78V14.57a6.93,6.93,0,1,1,13.85,0v2.21A1.22,1.22,0,0,1,12.63,18Z"/><circle class="cls-2" cx="13.36" cy="15.15" r="5"/><path class="cls-3" d="M13.39,18l-2.92-2.92,3.4-3.4a.7.7,0,0,1,1,0l1.95,1.95a.7.7,0,0,1,0,1Z"/><polygon class="cls-3" points="9.99 15.6 12.9 18.51 9.99 18.51 9.99 15.6"/><rect class="cls-2" x="11.33" y="13.8" width="4.12" height="0.69" transform="translate(-6.08 13.61) rotate(-45)"/><rect class="cls-2" x="12.3" y="14.77" width="4.12" height="0.69" transform="translate(-6.48 14.58) rotate(-45)"/></g></g></svg>