<svg xmlns="http://www.w3.org/2000/svg" viewBox="0 0 21.97 21.76"><defs><style>.cls-1{fill:#999;}.cls-2{fill:#32465a;}.cls-3{fill:#fff;}</style></defs><g id="レイヤー_2" data-name="レイヤー 2"><g id="type"><path class="cls-1" d="M7.73,0A5.92,5.92,0,0,0,1.82,5.91V9.55a.45.45,0,0,0,.45.45H4.09a.46.46,0,0,0,.46-.45V5.91a3.18,3.18,0,0,1,6.36,0V9.55a.45.45,0,0,0,.45.45h1.82a.46.46,0,0,0,.46-.45V5.91A5.92,5.92,0,0,0,7.73,0Z"/><path class="cls-1" d="M2.27,7.27H13.18a2.27,2.27,0,0,1,2.27,2.28v8.18A2.27,2.27,0,0,1,13.18,20H2.27A2.27,2.27,0,0,1,0,17.73V9.55A2.28,2.28,0,0,1,2.27,7.27Zm7.73,5a2.28,2.28,0,1,0-3.28,2l-.35,2.45a.46.46,0,0,0,.38.52H8.64a.46.46,0,0,0,.46-.45s0,0,0-.07L8.74,14.3A2.3,2.3,0,0,0,10,12.27Z"/><circle class="cls-2" cx="16.97" cy="16.76" r="5"/><path class="cls-3" d="M17,19.63l-2.91-2.91,3.4-3.4a.68.68,0,0,1,1,0l1.94,1.94a.68.68,0,0,1,0,1Z"/><polygon class="cls-3" points="13.6 17.2 16.52 20.12 13.6 20.12 13.6 17.2"/><rect class="cls-2" x="14.94" y="15.4" width="4.12" height="0.69" transform="translate(-6.15 16.63) rotate(-45)"/><rect class="cls-2" x="15.91" y="16.37" width="4.12" height="0.69" transform="translate(-6.56 17.61) rotate(-45)"/></g></g></svg>