<svg xmlns="http://www.w3.org/2000/svg" viewBox="0 0 24 24"><defs><style>.cls-1{fill:#999;}.cls-2{fill:#32465a;}.cls-3{fill:#fff;}</style></defs><g id="type"><path class="cls-1" d="M21.31,15.23H19.94V11a.78.78,0,0,0-.69-.85H11.69V6.77h2.37a.78.78,0,0,0,.69-.85V.85A.78.78,0,0,0,14.06,0H7.94a.78.78,0,0,0-.69.85V5.92a.78.78,0,0,0,.69.85h2.37v3.38H2.75a.78.78,0,0,0-.69.85v4.23H.69a.78.78,0,0,0-.69.85v5.07A.78.78,0,0,0,.69,22H4.81a.78.78,0,0,0,.69-.85V16.08a.78.78,0,0,0-.69-.85H3.44V11.85h6.87v3.38H8.94a.78.78,0,0,0-.69.85v5.07a.78.78,0,0,0,.69.85h4.12a.78.78,0,0,0,.69-.85V16.08a.78.78,0,0,0-.69-.85H11.69V11.85h6.87v3.38H17.19a.78.78,0,0,0-.69.85v5.07a.78.78,0,0,0,.69.85h4.12a.78.78,0,0,0,.69-.85V16.08A.78.78,0,0,0,21.31,15.23Z"/><circle class="cls-2" cx="18" cy="18" r="6"/><rect class="cls-3" x="16.8" y="14.4" width="2.4" height="7.2" transform="translate(-7.46 18) rotate(-45)"/><rect class="cls-3" x="14.4" y="16.8" width="7.2" height="2.4" transform="translate(-7.46 18) rotate(-45)"/></g></svg>