<svg xmlns="http://www.w3.org/2000/svg" viewBox="0 0 36.02 30.23"><defs><style>.cls-1{fill:#999;}.cls-2{fill:#32465a;}.cls-3{fill:#fff;}</style></defs><title>资源 5</title><g id="图层_2" data-name="图层 2"><g id="type"><path class="cls-1" d="M15.31,8.26a4.13,4.13,0,1,1,4.13-4.13A4.13,4.13,0,0,1,15.31,8.26Z"/><path class="cls-1" d="M21.08,18.09H9.52A1.22,1.22,0,0,1,8.3,16.87v-2a7.09,7.09,0,0,1,5.39-7,7,7,0,0,1,8.61,6.75v2.21A1.22,1.22,0,0,1,21.08,18.09Z"/><circle class="cls-2" cx="21.3" cy="15.09" r="5"/><rect class="cls-3" x="18.3" y="14.09" width="6" height="2"/><rect class="cls-3" x="20.3" y="12.09" width="2" height="6"/><path class="cls-2" d="M27,18.22l0,3.05L1,20.9a1,1,0,0,0-1,1l0,2.89a1,1,0,0,0,1,1l25.93.37-.05,3a1,1,0,0,0,1.56.82l7.19-5.39a1,1,0,0,0,0-1.62l-7-5.59A1,1,0,0,0,27,18.22Z"/></g></g></svg>