<svg xmlns="http://www.w3.org/2000/svg" viewBox="0 0 19.79 20.15"><defs><style>.cls-1{fill:#999;}.cls-2{fill:#32465a;}.cls-3{fill:#fff;}</style></defs><g id="レイヤー_2" data-name="レイヤー 2"><g id="type"><path class="cls-1" d="M10,8.41A4.21,4.21,0,1,1,14.16,4.2,4.21,4.21,0,0,1,10,8.41Z"/><path class="cls-1" d="M10,7.77A7,7,0,0,0,5.81,9.13,7.07,7.07,0,0,1,3.05,3.8c0-2-3-1.81-3,0,0,3,2.9,6.1,2.9,9.15v4.12a1.25,1.25,0,0,0,1.25,1.25H15.76A1.25,1.25,0,0,0,17,17.07V14.82A7.06,7.06,0,0,0,10,7.77Z"/><circle class="cls-2" cx="14.79" cy="15.15" r="5"/><path class="cls-3" d="M14.81,18,11.9,15.11l3.4-3.4a.7.7,0,0,1,1,0l1.94,1.95a.68.68,0,0,1,0,1Z"/><polygon class="cls-3" points="11.41 15.6 14.33 18.51 11.41 18.51 11.41 15.6"/><rect class="cls-2" x="12.75" y="13.8" width="4.12" height="0.69" transform="translate(-5.66 14.62) rotate(-45)"/><rect class="cls-2" x="13.72" y="14.77" width="4.12" height="0.69" transform="translate(-6.06 15.59) rotate(-45)"/></g></g></svg>