<svg width="44" height="45.247" xmlns="http://www.w3.org/2000/svg">
 <g>
  <title>background</title>
  <rect x="-1" y="-1" width="46" height="47.247" id="canvas_background" fill="none"/>
 </g>

 <g>
  <title>Layer 1</title>
  <text style="cursor: move;" id="所属を追加" fill="#333" font-size="9" font-family="YuGothicUI-Regular, Yu Gothic UI" y="65.599837" x="-18.88216">
   <tspan x="0.51084" y="42.352837" id="svg_1">所属を追加</tspan>
  </text>
  <g id="矩形_332" fill="#fff" stroke="#32465a" stroke-miterlimit="10">
   <rect width="40" height="32" rx="2" y="0" x="2" id="svg_2"/>
   <rect x="2.5" y="0.5" width="39" height="31" rx="1.5" fill="none" id="svg_3"/>
  </g>
  <g id="组_458">
   <g id="组_456">
    <g id="组_455">
     <path id="路径_276" d="m29.485,17.142l-1.25,0l0,-3.462a0.661,0.661 0 0 0 -0.625,-0.692l-6.875,0l0,-2.769l1.25,0a0.662,0.662 0 0 0 0.625,-0.693l0,-4.154a0.661,0.661 0 0 0 -0.625,-0.692l-3.75,0a0.661,0.661 0 0 0 -0.625,0.692l0,4.154a0.662,0.662 0 0 0 0.625,0.693l1.25,0l0,2.769l-6.875,0a0.661,0.661 0 0 0 -0.625,0.692l0,3.462l-1.25,0a0.661,0.661 0 0 0 -0.625,0.692l0,4.154a0.661,0.661 0 0 0 0.625,0.692l3.75,0a0.661,0.661 0 0 0 0.625,-0.692l0,-4.154a0.661,0.661 0 0 0 -0.625,-0.692l-1.25,0l0,-2.77l6.25,0l0,2.77l-1.25,0a0.661,0.661 0 0 0 -0.625,0.692l0,4.154a0.661,0.661 0 0 0 0.625,0.692l3.75,0a0.661,0.661 0 0 0 0.625,-0.692l0,-4.154a0.661,0.661 0 0 0 -0.625,-0.692l-1.25,0l0,-2.77l6.25,0l0,2.77l-1.25,0a0.661,0.661 0 0 0 -0.625,0.692l0,4.154a0.661,0.661 0 0 0 0.625,0.692l3.75,0a0.661,0.661 0 0 0 0.625,-0.692l0,-4.154a0.661,0.661 0 0 0 -0.625,-0.692z" fill="#999"/>
    </g>
   </g>
   <g id="组_457">
    <circle id="椭圆_144" cx="30.891" cy="22.319" r="5" fill="#32465a"/>
    <rect id="矩形_333" width="6" height="2" fill="#fff" y="21.319" x="27.891"/>
    <rect id="矩形_334" width="6" height="2" transform="rotate(90 31.89099884033203,19.31900024414063) " fill="#fff" y="19.319" x="31.891"/>
   </g>
  </g>
 </g>
</svg>