<svg xmlns="http://www.w3.org/2000/svg" viewBox="0 0 36 30.09"><defs><style>.cls-1{fill:#999;}.cls-2{fill:#222;}.cls-3{fill:#fff;}.cls-4{fill:#32465a;}</style></defs><title>资源 6</title><g id="图层_2" data-name="图层 2"><g id="type"><path class="cls-1" d="M18.34,8.26a4.13,4.13,0,1,1,4.14-4.13A4.14,4.14,0,0,1,18.34,8.26Z"/><path class="cls-1" d="M24.5,18.09H12.94a1.22,1.22,0,0,1-1.22-1.22v-2a7.09,7.09,0,0,1,5.39-7,7,7,0,0,1,8.61,6.75v2.21A1.22,1.22,0,0,1,24.5,18.09Z"/><circle class="cls-2" cx="24.72" cy="15.09" r="5"/><rect class="cls-3" x="23.78" y="12.15" width="2" height="6" transform="translate(-3.46 21.96) rotate(-45)"/><rect class="cls-3" x="21.78" y="14.15" width="6" height="2" transform="translate(-3.46 21.96) rotate(-45)"/><path class="cls-4" d="M9.08,18.1v3H35a1,1,0,0,1,1,1V25a1,1,0,0,1-1,1H9.08v3a1,1,0,0,1-1.58.8L.4,24.41a1,1,0,0,1,0-1.63L7.5,17.3A1,1,0,0,1,9.08,18.1Z"/></g></g></svg>