<svg xmlns="http://www.w3.org/2000/svg" viewBox="0 0 15.78 18.64"><defs><style>.cls-1{fill:#32465a;}.cls-1,.cls-2{fill-rule:evenodd;}.cls-2{fill:#999;}</style></defs><title>资源 17</title><g id="图层_2" data-name="图层 2"><g id="图层_1-2" data-name="图层 1"><path class="cls-1" d="M15.12,4.15a.79.79,0,0,0,.65-.92.8.8,0,0,0-.93-.65L12.48,3,12.1.83A1,1,0,0,0,10.94,0L3.45,1.34a1,1,0,0,0-.81,1.15L3,4.66.66,5.08A.8.8,0,1,0,.94,6.65ZM4.6,4.38l6.3-1.11L10.63,1.7,4.32,2.81Z"/><path class="cls-2" d="M3,7.44v10.2a1,1,0,0,0,1,1h9.2a1,1,0,0,0,1-1V7.44Zm6.4,9H11V9H9.41Zm-3.2,0h1.6V9H6.21Z"/></g></g></svg>