<svg width="50" height="43.103" xmlns="http://www.w3.org/2000/svg">

 <g>
  <title>background</title>
  <rect fill="none" id="canvas_background" height="402" width="582" y="-1" x="-1"/>
 </g>
 <g>
  <title>Layer 1</title>
  <path fill="#f5c828" d="m47.683002,5.170996l-20.837,0a3.448,3.448 0 0 1 -2.872,-1.534l-1.4,-2.1a3.446,3.446 0 0 0 -2.871,-1.534l-17.385,0a2.318,2.318 0 0 0 -2.318,2.318l0,11.475l50,0l0,-6.3a2.317,2.317 0 0 0 -2.317,-2.317" id="路径_789"/>
  <path fill="#f5e146" d="m47.683002,10.344996l-45.365,0a2.317,2.317 0 0 0 -2.317,2.317l0,28.123a2.317,2.317 0 0 0 2.317,2.318l45.365,0a2.317,2.317 0 0 0 2.317,-2.318l0,-28.123a2.317,2.317 0 0 0 -2.317,-2.317" id="路径_790"/>
 </g>
</svg>