<svg xmlns="http://www.w3.org/2000/svg" viewBox="0 0 24 22.39"><defs><style>.cls-1,.cls-4{fill:#2d2d3c;}.cls-1{fill-rule:evenodd;}.cls-2{fill:#32465a;}.cls-3{fill:#999;}.cls-5{fill:#fff;}</style></defs><title>资源 4</title><g id="图层_2" data-name="图层 2"><g id="type"><path class="cls-2" d="M17.28,1.87H9.73a1.23,1.23,0,0,1-1-.55L8.18.56a1.24,1.24,0,0,0-1-.56H.84A.85.85,0,0,0,0,.84V5H18.12V2.71A.85.85,0,0,0,17.28,1.87Z"/><path class="cls-3" d="M17.28,3.75H.84A.84.84,0,0,0,0,4.59V14.78a.85.85,0,0,0,.84.84H17.28a.85.85,0,0,0,.84-.84V4.59A.84.84,0,0,0,17.28,3.75Z"/><path class="cls-1" d="M12.88,13.06a.7.7,0,0,0-.2-.49l-1.86-1.85a3.8,3.8,0,1,0-3.13,1.65,3.88,3.88,0,0,0,2.16-.67l1.85,1.84a.67.67,0,0,0,.49.21A.7.7,0,0,0,12.88,13.06Z"/><circle class="cls-4" cx="7.69" cy="8.56" r="2.42"/><circle class="cls-2" cx="18.25" cy="16.64" r="5.75"/><rect class="cls-5" x="17.1" y="13.19" width="2.3" height="6.9" transform="translate(-6.42 17.78) rotate(-45)"/><rect class="cls-5" x="14.8" y="15.49" width="6.9" height="2.3" transform="translate(-6.42 17.78) rotate(-45)"/></g></g></svg>