<svg xmlns="http://www.w3.org/2000/svg" viewBox="0 0 15.22 16.12"><defs><style>.cls-1{fill:#32465a;}.cls-2{fill:#999;}</style></defs><title>资源 18</title><g id="图层_2" data-name="图层 2"><g id="图层_1-2" data-name="图层 1"><path class="cls-1" d="M13.34,9.19h-2a.5.5,0,0,0-.48.46A4,4,0,1,1,6.93,5.23V6.71a.5.5,0,0,0,.85.35l3-3a.5.5,0,0,0,0-.7l-3-3A.51.51,0,0,0,7.24.31a.5.5,0,0,0-.31.46V2.26A6.94,6.94,0,0,0,0,9.29a7,7,0,0,0,6.83,6.83,7,7,0,0,0,7-6.41.5.5,0,0,0-.51-.52"/><path class="cls-2" d="M15.22,3.75,11.68.22a.75.75,0,1,0-1.06,1.06L13.1,3.76,10.63,6.23a.75.75,0,0,0,1.06,1.06Z"/></g></g></svg>