<svg xmlns="http://www.w3.org/2000/svg" viewBox="0 0 16 16"><defs><style>.cls-1{fill:#32465a;}.cls-1,.cls-2{fill-rule:evenodd;}.cls-2{fill:#999;}</style></defs><title>资源 11</title><g id="图层_2" data-name="图层 2"><g id="图层_1-2" data-name="图层 1"><path class="cls-1" d="M12.8,3.2V1a1,1,0,0,0-1-1H4.2a1,1,0,0,0-1,1V3.2H.8a.8.8,0,0,0,0,1.6H2.4V15.2a.8.8,0,0,0,.8.8h9.6a.8.8,0,0,0,.8-.8V4.8h1.6a.8.8,0,1,0,0-1.6Zm-8,0h6.4V1.6H4.8Zm4,10.6h1.6V6.4H8.8Zm-3.2,0H7.2V6.4H5.6Z"/><path class="cls-2" d="M2.4,4.8V15a1,1,0,0,0,1,1h9.2a1,1,0,0,0,1-1V4.8Zm6.4,9h1.6V6.4H8.8Zm-3.2,0H7.2V6.4H5.6Z"/></g></g></svg>