<svg width="18" height="15.517" xmlns="http://www.w3.org/2000/svg">

 <g>
  <title>background</title>
  <rect fill="none" id="canvas_background" height="402" width="582" y="-1" x="-1"/>
 </g>
 <g>
  <title>Layer 1</title>
  <path fill="#f5c828" d="m17.165997,1.862026l-7.5,0a1.242,1.242 0 0 1 -1.034,-0.552l-0.5,-0.758a1.242,1.242 0 0 0 -1.033,-0.552l-6.265,0a0.834,0.834 0 0 0 -0.834,0.834l0,4.131l18,0l0,-2.269a0.834,0.834 0 0 0 -0.834,-0.834" id="路径_764"/>
  <path fill="#f5e146" d="m17.165997,3.724026l-16.332,0a0.835,0.835 0 0 0 -0.834,0.834l0,10.125a0.834,0.834 0 0 0 0.834,0.834l16.332,0a0.833,0.833 0 0 0 0.834,-0.834l0,-10.125a0.834,0.834 0 0 0 -0.834,-0.834" id="路径_765"/>
 </g>
</svg>