<svg xmlns="http://www.w3.org/2000/svg" viewBox="0 0 15 18"><defs><style>.cls-1{fill:#e6e6e6;}.cls-2{fill:#2e7d32;}</style></defs><g id="图层_2" data-name="图层 2"><g id="type"><path class="cls-1" d="M6,0h8.3a.65.65,0,0,1,.7.59V17.41a.65.65,0,0,1-.7.59H.7a.65.65,0,0,1-.7-.59V5Z"/><path class="cls-2" d="M6,0V4.43A.61.61,0,0,1,5.34,5H0Z"/><path class="cls-2" d="M5,11.88l1.23,2h-1l-.63-1.08a3.07,3.07,0,0,1-.17-.31l-.16.3-.61,1.09H2.77L4,11.9,2.81,10h.95l.59,1c.06.1.1.2.16.29a2.14,2.14,0,0,0,.17-.3l.55-1h.92Z"/><path class="cls-2" d="M7.8,13.85H6.92V8.32H7.8Z"/><path class="cls-2" d="M10.88,11.14a.69.69,0,0,0-.69-.61c-.38,0-.6.18-.6.41s.12.43.68.58l.33.08c.87.23,1.19.55,1.19,1.17S11.28,14,10.23,14a1.49,1.49,0,0,1-1.6-1l.82-.28a.8.8,0,0,0,.8.64c.51,0,.7-.22.7-.5s-.13-.4-.74-.57l-.32-.09C9.06,12,8.76,11.66,8.76,11s.51-1.09,1.44-1.09a1.42,1.42,0,0,1,1.51,1Z"/></g></g></svg>