<svg xmlns="http://www.w3.org/2000/svg" viewBox="0 0 12 12" width="12" height="12"><defs><style>.cls-1{fill:#32465a;}.cls-2{fill:#999;}</style></defs><title>file-qr-？</title><g id="图层_2" data-name="图层 2"><g id="type"><path class="cls-1" d="M0,12H5.45V6.55H0ZM1.09,7.64H4.36V10.9H1.09Z"/><rect class="cls-2" x="2.18" y="8.73" width="1.09" height="1.09"/><rect class="cls-1" x="8.73" y="10.91" width="1.09" height="1.09"/><rect class="cls-1" x="10.91" y="9.82" width="1.09" height="2.18"/><polygon class="cls-1" points="10.91 8.73 9.82 8.73 9.82 6.54 6.54 6.54 6.54 12 7.64 12 7.64 7.64 8.73 7.64 8.73 9.82 12 9.82 12 6.54 12 6.54 10.91 6.54 10.91 8.73"/><path class="cls-1" d="M0,5.45H5.45V0H0ZM1.09,1.09H4.36V4.36H1.09Z"/><rect class="cls-2" x="2.18" y="2.18" width="1.09" height="1.09"/><path class="cls-1" d="M6.55,0V5.45H12V0Zm4.36,4.36H7.64V1.09h3.27Z"/><rect class="cls-2" x="8.73" y="2.18" width="1.09" height="1.09"/></g></g></svg>