<svg xmlns="http://www.w3.org/2000/svg" viewBox="0 0 16 16.22"><defs><style>.cls-1{fill:#999;}.cls-2{fill:#32465a;}</style></defs><title>资源 4</title><g id="图层_2" data-name="图层 2"><g id="图层_1-2" data-name="图层 1"><path class="cls-1" d="M4.45,7a.66.66,0,0,0-.92,1l4,3.73a.73.73,0,0,0,.45.18.67.67,0,0,0,.44-.18l4-3.73a.66.66,0,1,0-.91-1L8.67,9.71v-9a.67.67,0,0,0-1.34,0v9Z"/><path class="cls-2" d="M14.22,12.29v2.15H1.78V12.29H0v3.27a.66.66,0,0,0,.67.66H15.33a.66.66,0,0,0,.67-.66V12.29Z"/></g></g></svg>