<svg xmlns="http://www.w3.org/2000/svg" viewBox="0 0 36.38 50"><defs><style>.cls-1{fill:#e6e6e6;}.cls-2,.cls-3{fill:#cd0000;}.cls-3{fill-rule:evenodd;}</style></defs><title>pdf</title><g id="图层_2" data-name="图层 2"><g id="_2" data-name="2"><g id="タイルViewのコピー"><g id="ファイル_選択のコピー" data-name="ファイル 選択のコピー"><path class="cls-1" d="M.15,14.37a1.68,1.68,0,0,1,.34-.48L14.37.48a1.68,1.68,0,0,1,.5-.33,1.76,1.76,0,0,1,.7-.15H34.69a1.66,1.66,0,0,1,1.69,1.64V48.36A1.66,1.66,0,0,1,34.69,50h-33A1.66,1.66,0,0,1,0,48.36V15a1.59,1.59,0,0,1,.15-.68"/><path class="cls-2" d="M.49,13.89,14.37.48a1.68,1.68,0,0,1,.5-.33V12.74a1.67,1.67,0,0,1-1.69,1.64H.15a1.64,1.64,0,0,1,.34-.48"/><path class="cls-3" d="M3.53,34.65V22.59H7.77c2.66,0,4.85.94,4.85,3.93s-2.22,4.13-4.77,4.13H6.43v4Zm2.9-6.29H7.7c1.41,0,2.09-.67,2.09-1.85S9,24.87,7.62,24.87H6.43ZM14,34.65V22.59h3.47c3.68,0,6.11,1.77,6.11,6s-2.43,6.1-6,6.1H14Zm2.9-2.34h.39c1.95,0,3.33-.89,3.33-3.76s-1.38-3.67-3.33-3.67H16.9Zm8.25,2.34V22.59h7.7V25H28v2.65h4.12V30H28.05v4.61Z"/></g></g></g></g></svg>