<svg xmlns="http://www.w3.org/2000/svg" viewBox="0 0 14 11.35" width="14" height="11.35"><defs><style>.cls-1{fill:#32465a;}</style></defs><title>file-conversion-？</title><g id="图层_2" data-name="图层 2"><g id="type"><path class="cls-1" d="M3.84,5.68H3.08a3.86,3.86,0,0,1,6-3.26.9.9,0,0,0,1.13-.07h0A.87.87,0,0,0,10.12,1a5.63,5.63,0,0,0-8.81,4.7H.53c-.47,0-.67.32-.43.71L1.76,8c.32.33.52.34.86,0L4.27,6.39C4.51,6,4.32,5.68,3.84,5.68ZM13.9,5,12.24,3.36c-.33-.33-.54-.31-.86,0L9.73,5c-.24.39-.05.7.43.7h.76A3.89,3.89,0,0,1,7.05,9.6a4,4,0,0,1-2.16-.66A.89.89,0,0,0,3.76,9h0a.87.87,0,0,0,.13,1.36,5.55,5.55,0,0,0,3.16,1,5.67,5.67,0,0,0,5.64-5.64h.78C13.94,5.7,14.14,5.39,13.9,5Z"/></g></g></svg>
