<svg xmlns="http://www.w3.org/2000/svg" viewBox="0 0 24 24"><defs><style>.cls-1{fill:#999;}.cls-2{fill:#32465a;}</style></defs><title>资源 2</title><g id="图层_2" data-name="图层 2"><g id="图层_1-2" data-name="图层 1"><path class="cls-1" d="M6.67,7.2a1,1,0,0,1-1.4,0,1,1,0,0,1,0-1.38l6-5.53A1.08,1.08,0,0,1,12,0a1,1,0,0,1,.66.26l6,5.53a.94.94,0,0,1,0,1.38,1,1,0,0,1-1.4,0L13,3.22V16.6a1,1,0,0,1-2,0V3.22Z"/><path class="cls-2" d="M21.33,18.18v3.19H2.67V18.18H0V23a1,1,0,0,0,1,1H23a1,1,0,0,0,1-1V18.18Z"/></g></g></svg>