<svg xmlns="http://www.w3.org/2000/svg" viewBox="0 0 14.84 18.6"><defs><style>.cls-1{fill:#41556e;}.cls-2{fill:#bbb;}.cls-3{fill:#32465a;}.cls-4{fill:#999;}</style></defs><title>资源 10</title><g id="图层_2" data-name="图层 2"><g id="图层_1-2" data-name="图层 1"><polygon class="cls-1" points="14.84 4.17 14.84 4.55 10.16 4.54 10.16 0 10.45 0 14.84 4.17"/><path class="cls-2" d="M14.84,4.33v10.6a.67.67,0,0,1-.66.67H3.63A.66.66,0,0,1,3,14.93V.67A.66.66,0,0,1,3.63,0h6.72V3.67a.66.66,0,0,0,.66.66Z"/><polygon class="cls-3" points="11.87 7.17 11.87 7.55 7.19 7.54 7.19 3 7.49 3 11.87 7.17"/><path class="cls-4" d="M11.87,7.33v10.6a.66.66,0,0,1-.66.67H.66A.67.67,0,0,1,0,17.93V3.67A.67.67,0,0,1,.66,3H7.39V6.67a.65.65,0,0,0,.66.66Z"/><rect class="cls-3" x="1.78" y="12.6" width="8" height="1.2"/><rect class="cls-3" x="1.78" y="10.2" width="4.69" height="1.2"/><rect class="cls-3" x="1.78" y="15" width="8" height="1.2"/></g></g></svg>