<svg xmlns="http://www.w3.org/2000/svg" viewBox="0 0 30 16"><defs><style>.cls-1,.cls-3{fill:#32465a;}.cls-2{fill:#999;}.cls-3{fill-rule:evenodd;}</style></defs><g id="レイヤー_2" data-name="レイヤー 2"><g id="type"><path class="cls-1" d="M0,16H7.27V8.73H0Zm1.45-5.82H5.82v4.35H1.45Z"/><rect class="cls-2" x="2.91" y="11.64" width="1.45" height="1.45"/><rect class="cls-1" x="11.64" y="14.55" width="1.45" height="1.45"/><rect class="cls-1" x="14.55" y="13.09" width="1.45" height="2.91"/><polygon class="cls-1" points="14.54 11.64 13.09 11.64 13.09 8.73 8.73 8.73 8.73 16 10.18 16 10.18 10.18 11.64 10.18 11.64 13.09 16 13.09 16 8.73 16 8.73 14.54 8.73 14.54 11.64"/><path class="cls-1" d="M0,7.27H7.27V0H0ZM1.45,1.45H5.82V5.82H1.45Z"/><rect class="cls-2" x="2.91" y="2.91" width="1.45" height="1.45"/><path class="cls-1" d="M8.73,0V7.27H16V0Zm5.82,5.82H10.18V1.45h4.37Z"/><rect class="cls-2" x="11.64" y="2.91" width="1.45" height="1.45"/><polygon class="cls-3" points="28.82 6.16 25 9.97 21.18 6.16 20 7.33 25 12.33 30 7.33 28.82 6.16"/></g></g></svg>
