<svg xmlns="http://www.w3.org/2000/svg" viewBox="0 0 21 17.66"><defs><style>.cls-1{fill:#32465a;}.cls-2{fill:#999;}.cls-3{fill:#fff;}</style></defs><title>资源 3</title><g id="图层_2" data-name="图层 2"><g id="图层_1-2" data-name="图层 1"><path class="cls-1" d="M17.17,1.86H9.66a1.23,1.23,0,0,1-1-.55L8.13.55a1.26,1.26,0,0,0-1-.55H.83A.83.83,0,0,0,0,.83V5H18V2.7a.84.84,0,0,0-.83-.84"/><path class="cls-2" d="M17.17,3.72H.83A.84.84,0,0,0,0,4.56V14.68a.84.84,0,0,0,.83.84H17.17a.84.84,0,0,0,.83-.84V4.56a.84.84,0,0,0-.83-.84"/><path class="cls-1" d="M21,12.66a5,5,0,1,1-5-5,5,5,0,0,1,5,5"/><rect class="cls-3" x="13" y="11.66" width="6" height="2"/><rect class="cls-3" x="15" y="9.66" width="2" height="6"/></g></g></svg>