<svg width="100.661" height="24.422" xmlns="http://www.w3.org/2000/svg">

 <g>
  <title>background</title>
  <rect fill="none" id="canvas_background" height="402" width="582" y="-1" x="-1"/>
 </g>
 <g>
  <title>Layer 1</title>
  <g id="CheXロゴ">
   <path fill="#d61918" d="m12.208,0a12.211,12.211 0 0 0 -5.321,23.2a12.185,12.185 0 0 0 8.734,-4.269a7.546,7.546 0 1 1 4.134,-6.73l0,0.008c0,0.039 0,0.08 0,0.12s0,0.11 0,0.164s0,0.136 -0.007,0.2c0,0.027 0,0.053 0,0.08c0,0.075 -0.008,0.149 -0.012,0.222a0.564,0.564 0 0 0 0,0.058c-0.006,0.079 -0.013,0.159 -0.02,0.237l0,0.032a12.216,12.216 0 0 1 -9.827,10.87a12.211,12.211 0 1 0 2.319,-24.192" id="路径_835"/>
   <path fill="#212221" d="m28.491,12.816c0,-5.517 4.053,-9.57 9.795,-9.57c4.926,0 8.641,2.984 9.571,7.347l-4.814,0a4.875,4.875 0 0 0 -4.757,-3.125a5.026,5.026 0 0 0 -5.178,5.348a5.025,5.025 0 0 0 5.179,5.348a4.875,4.875 0 0 0 4.757,-3.124l4.814,0c-0.93,4.362 -4.645,7.346 -9.571,7.346c-5.742,0 -9.795,-4.053 -9.795,-9.57" id="路径_836"/>
   <path fill="#212221" d="m50.502,2.036l4.222,0l0,7.572a4.076,4.076 0 0 1 3.462,-1.858c2.928,0 6.052,1.97 6.052,7.064l0,7.208l-4.222,0l0,-7.208c0,-2.195 -1.069,-3.123 -2.646,-3.123c-1.52,0 -2.646,0.984 -2.646,3.123l0,7.208l-4.222,0l0,-19.986z" id="路径_837"/>
   <path fill="#212221" d="m66.433,15.068a7.446,7.446 0 0 1 14.89,0l0,1.183l-10.5,0a2.888,2.888 0 0 0 3.1,2.364a2.969,2.969 0 0 0 2.647,-1.014l4.363,0a7,7 0 0 1 -7.01,4.786a7.143,7.143 0 0 1 -7.487,-7.319m10.556,-1.492a2.937,2.937 0 0 0 -3.072,-2.054a2.86,2.86 0 0 0 -3.012,2.054l6.084,0z" id="路径_838"/>
   <path fill="#212221" d="m88.586,12.563l-5.77,-8.95l5.376,0l3.462,5.911l3.463,-5.911l5.264,0l-5.827,8.95l6.108,9.458l-5.4,0l-3.743,-6.446l-3.778,6.447l-5.233,0l6.078,-9.459z" id="路径_839"/>
  </g>
 </g>
</svg>