<svg width="24" height="24" xmlns="http://www.w3.org/2000/svg">

 <g>
  <title>background</title>
  <rect fill="none" id="canvas_background" height="10.387045" width="9.738017" y="-1" x="-1"/>
 </g>
 <g>
  <title>Layer 1</title>
  <circle fill="#f0f0f0" r="12" cy="12" cx="12" id="椭圆_446"/>
  <path fill="#32465a" d="m20.576,9.951l-1.383,-0.3a7.45,7.45 0 0 0 -0.445,-1.074l0.766,-1.191a0.54,0.54 0 0 0 -0.072,-0.671l-2.156,-2.156a0.54,0.54 0 0 0 -0.671,-0.072l-1.191,0.766a7.453,7.453 0 0 0 -1.074,-0.445l-0.3,-1.383a0.536,0.536 0 0 0 -0.525,-0.424l-3.048,0a0.536,0.536 0 0 0 -0.525,0.424l-0.3,1.383a7.453,7.453 0 0 0 -1.074,0.445l-1.191,-0.766a0.54,0.54 0 0 0 -0.671,0.072l-2.156,2.156a0.54,0.54 0 0 0 -0.072,0.671l0.766,1.191a7.45,7.45 0 0 0 -0.445,1.074l-1.383,0.3a0.536,0.536 0 0 0 -0.424,0.525l0,3.048a0.536,0.536 0 0 0 0.424,0.525l1.383,0.3a7.45,7.45 0 0 0 0.445,1.074l-0.766,1.191a0.54,0.54 0 0 0 0.072,0.671l2.156,2.156a0.54,0.54 0 0 0 0.671,0.072l1.191,-0.766a7.453,7.453 0 0 0 1.074,0.445l0.3,1.383a0.536,0.536 0 0 0 0.525,0.424l3.048,0a0.536,0.536 0 0 0 0.525,-0.424l0.3,-1.383a7.453,7.453 0 0 0 1.074,-0.445l1.191,0.766a0.538,0.538 0 0 0 0.671,-0.072l2.156,-2.156a0.54,0.54 0 0 0 0.072,-0.671l-0.766,-1.191a7.45,7.45 0 0 0 0.445,-1.074l1.383,-0.3a0.536,0.536 0 0 0 0.424,-0.525l0,-3.048a0.536,0.536 0 0 0 -0.424,-0.525zm-5.349,2.049a3.227,3.227 0 1 1 -3.227,-3.227a3.231,3.231 0 0 1 3.227,3.227z" id="路径_2287"/>
 </g>
</svg>