<svg width="24" height="24" xmlns="http://www.w3.org/2000/svg">

 <g>
  <title>background</title>
  <rect fill="none" id="canvas_background" height="10.387045" width="9.738017" y="-1" x="-1"/>
 </g>
 <g>
  <title>Layer 1</title>
  <g id="组_2377">
   <circle fill="#f0f0f0" r="12" cy="12" cx="12" id="椭圆_448"/>
   <g id="组_2375">
    <path fill="#7d87be" d="m7.968,12.01l-0.978,0l0,-0.01a4.94,4.94 0 0 1 7.7,-4.161a1.138,1.138 0 0 0 1.441,-0.09l0.008,-0.007a1.124,1.124 0 0 0 -0.162,-1.742a7.128,7.128 0 0 0 -4.039,-1.248a7.233,7.233 0 0 0 -7.2,7.252l-0.99,0c-0.606,0 -0.854,0.4 -0.551,0.9l2.109,2.096c0.418,0.419 0.67,0.431 1.1,0l2.112,-2.093c0.305,-0.492 0.056,-0.897 -0.55,-0.897z" id="路径_2288"/>
   </g>
   <g id="组_2376">
    <path fill="#465ca9" d="m20.806,11.139l-2.112,-2.089c-0.43,-0.431 -0.7,-0.4 -1.1,0l-2.111,2.089c-0.3,0.5 -0.056,0.9 0.55,0.9l0.977,0a4.94,4.94 0 0 1 -7.7,4.124a1.137,1.137 0 0 0 -1.439,0.09l-0.006,0a1.124,1.124 0 0 0 0.164,1.74a7.136,7.136 0 0 0 4.036,1.245a7.226,7.226 0 0 0 7.2,-7.2l0.992,0c0.605,0.001 0.852,-0.405 0.549,-0.899z" id="路径_2289"/>
   </g>
  </g>
 </g>
</svg>