<svg xmlns="http://www.w3.org/2000/svg" viewBox="0 0 14.11 17.4" width="14.11" height="17.4"><defs><style>.cls-1{fill:#e6e6e6;}.cls-2{fill:#2e7d32;}</style></defs><title>file-execl-001 </title><g id="图层_2" data-name="图层 2"><g id="type"><path class="cls-1" d="M.06,5a.7.7,0,0,1,.13-.17L5.57.17A.76.76,0,0,1,5.76.05.87.87,0,0,1,6,0h7.41a.62.62,0,0,1,.66.57V16.83a.62.62,0,0,1-.66.57H.66A.61.61,0,0,1,0,16.83V5.24A.5.5,0,0,1,.06,5"/><path class="cls-2" d="M.19,4.83,5.57.17A.76.76,0,0,1,5.76.05V4.43A.61.61,0,0,1,5.11,5H.06a.7.7,0,0,1,.13-.17"/><path class="cls-2" d="M4.75,10.36l1.23,2H5L4.4,11.25c-.05-.09-.11-.19-.17-.31a2.25,2.25,0,0,1-.16.31l-.6,1.09H2.54l1.22-2L2.59,8.49h.94l.59,1,.17.3.17-.3.54-1h.93Z"/><path class="cls-2" d="M7.58,12.34H6.7V6.81h.88Z"/><path class="cls-2" d="M10.65,9.63C10.55,9.21,10.31,9,10,9s-.61.18-.61.42.13.42.69.57l.32.08c.88.23,1.19.55,1.19,1.17s-.51,1.19-1.55,1.19a1.52,1.52,0,0,1-1.61-1l.82-.29a.82.82,0,0,0,.81.64c.5,0,.7-.21.7-.49s-.13-.4-.74-.58l-.32-.09c-.84-.22-1.13-.52-1.13-1.17S9,8.41,10,8.41a1.43,1.43,0,0,1,1.51,1Z"/></g></g></svg>