<svg xmlns="http://www.w3.org/2000/svg" viewBox="0 0 14.19 14.19" width="14.19" height="14.19"><defs><style>.cls-1{fill:#999;}.cls-2{fill:#32465a;}.cls-3{fill:#bbb;}</style></defs><title>file-notice-？</title><g id="图层_2" data-name="图层 2"><g id="type"><path class="cls-1" d="M12.41.89a.88.88,0,0,1,.89.88V12.41a.89.89,0,0,1-.89.89H1.77a.88.88,0,0,1-.88-.89V1.77A.87.87,0,0,1,1.77.89H12.41m0-.89H1.77A1.77,1.77,0,0,0,0,1.77V12.41a1.78,1.78,0,0,0,1.77,1.78H12.41a1.78,1.78,0,0,0,1.78-1.78V1.77A1.78,1.78,0,0,0,12.41,0"/><path class="cls-1" d="M11.67,4H2.57v6.15h9.1Z"/><path class="cls-2" d="M11.55,9.83,7.12,5.94,2.69,9.83A.46.46,0,0,0,3,10.6h8.17A.46.46,0,0,0,11.55,9.83Z"/><path class="cls-3" d="M2.69,4.38,7.12,8.27l4.43-3.89a.47.47,0,0,0-.34-.78H3A.47.47,0,0,0,2.69,4.38Z"/></g></g></svg>