<svg xmlns="http://www.w3.org/2000/svg" viewBox="0 0 14.19 14.19" width="14.19" height="14.19"><defs><style>.cls-1{fill:#fff;}.cls-2{fill:#999;}.cls-3{fill:#32465a;}</style></defs><title>file-rename-？</title><g id="图层_2" data-name="图层 2"><g id="type"><g id="名前変更"><rect class="cls-1" x="0.44" y="0.44" width="13.3" height="13.3" rx="1.33"/><path class="cls-2" d="M12.41.89a.88.88,0,0,1,.89.88V12.41a.89.89,0,0,1-.89.89H1.77a.88.88,0,0,1-.88-.89V1.77A.87.87,0,0,1,1.77.89H12.41m0-.89H1.77A1.77,1.77,0,0,0,0,1.77V12.41a1.78,1.78,0,0,0,1.77,1.78H12.41a1.78,1.78,0,0,0,1.78-1.78V1.77A1.78,1.78,0,0,0,12.41,0"/><path class="cls-3" d="M7,11,3.2,7.22,7.59,2.83a.89.89,0,0,1,1.25,0l2.51,2.51a.89.89,0,0,1,0,1.26Z"/><polygon class="cls-2" points="2.58 7.85 6.34 11.61 2.58 11.61 2.58 7.85"/><rect class="cls-1" x="4.3" y="5.53" width="5.32" height="0.89" transform="translate(-2.18 6.67) rotate(-45)"/><rect class="cls-1" x="5.56" y="6.78" width="5.32" height="0.89" transform="translate(-2.7 7.93) rotate(-45)"/></g></g></g></svg>