<svg xmlns="http://www.w3.org/2000/svg" viewBox="0 0 21 22.89" width="21" height="22.89"><defs><style>.cls-1{fill:#e6e6e6;}.cls-2,.cls-3{fill:#cd0000;}.cls-3{fill-rule:evenodd;}.cls-4{fill:#f5c828;}</style></defs><title>file-pdffaviort-001</title><g id="图层_2" data-name="图层 2"><g id="type"><path class="cls-1" d="M.06,5a.7.7,0,0,1,.13-.17L5.57.17A.76.76,0,0,1,5.76.05.87.87,0,0,1,6,0h7.41a.62.62,0,0,1,.66.57V16.83a.62.62,0,0,1-.66.57H.66A.61.61,0,0,1,0,16.83V5.24A.5.5,0,0,1,.06,5"/><path class="cls-2" d="M.19,4.83,5.57.17A.76.76,0,0,1,5.76.05V4.43A.61.61,0,0,1,5.11,5H.06a.7.7,0,0,1,.13-.17"/><path class="cls-3" d="M1.37,12.06V7.86H3c1,0,1.88.33,1.88,1.37S4,10.66,3,10.66H2.5v1.4ZM2.5,9.87H3c.54,0,.81-.23.81-.64S3.49,8.66,3,8.66H2.5Zm2.93,2.19V7.86H6.77c1.43,0,2.37.62,2.37,2.08s-.94,2.12-2.3,2.12Zm1.12-.81H6.7c.76,0,1.29-.31,1.29-1.31S7.46,8.66,6.7,8.66H6.55Zm3.2.81V7.86h3V8.7H10.88v.92h1.59v.84H10.88v1.6Z"/><path class="cls-4" d="M14.24,9.05l2,4.29,4.51.68a.29.29,0,0,1,.15.49l-3.26,3.34.77,4.71a.28.28,0,0,1-.4.3l-4-2.23-4,2.23a.28.28,0,0,1-.4-.3l.77-4.71L7.08,14.51A.29.29,0,0,1,7.23,14l4.51-.68,2-4.29a.26.26,0,0,1,.48,0"/></g></g></svg>