<svg xmlns="http://www.w3.org/2000/svg" viewBox="0 0 18 18"><defs><style>.cls-1{fill:#32465a;}.cls-2{fill:#999;}</style></defs><g id="图层_2" data-name="图层 2"><g id="type"><path class="cls-1" d="M0,18H8.18V9.82H0Zm1.64-6.55H6.55v4.9H1.64Z"/><rect class="cls-2" x="3.27" y="13.09" width="1.64" height="1.64"/><rect class="cls-1" x="13.09" y="16.36" width="1.64" height="1.64"/><rect class="cls-1" x="16.36" y="14.73" width="1.64" height="3.27"/><polygon class="cls-1" points="16.36 13.09 14.73 13.09 14.73 9.82 9.82 9.82 9.82 18 11.45 18 11.45 11.45 13.09 11.45 13.09 14.73 18 14.73 18 9.82 18 9.82 16.36 9.82 16.36 13.09"/><path class="cls-1" d="M0,8.18H8.18V0H0ZM1.64,1.64H6.55V6.55H1.64Z"/><rect class="cls-2" x="3.27" y="3.27" width="1.64" height="1.64"/><path class="cls-1" d="M9.82,0V8.18H18V0Zm6.54,6.55H11.45V1.64h4.91Z"/><rect class="cls-2" x="13.09" y="3.27" width="1.64" height="1.64"/></g></g></svg>